<svg width="13" height="13" viewBox="0 0 13 13" fill="none" xmlns="http://www.w3.org/2000/svg">
<g id="Layer_2_00000019666308414107203810000016359489542308255153_">
<g id="croos">
<path id="Vector" d="M8.4657 6.06367L12.4962 2.03321C12.9484 1.5833 12.9484 0.854535 12.5008 0.40228C12.0509 -0.0499757 11.3222 -0.0499757 10.8699 0.397593L10.8676 0.399936L6.83711 4.4304L2.8043 0.40228C2.35439 -0.0476325 1.62328 -0.0476325 1.17337 0.40228C0.723459 0.852192 0.723459 1.5833 1.17337 2.03321L5.20383 6.06367L1.17337 10.0941C0.723459 10.544 0.723459 11.2752 1.17337 11.7251C1.62328 12.175 2.35439 12.175 2.8043 11.7251L6.83476 7.6946L10.8652 11.7251C11.3151 12.175 12.0462 12.175 12.4962 11.7251C12.9461 11.2752 12.9461 10.544 12.4962 10.0941L8.4657 6.06367Z" fill="#FC691B"/>
</g>
</g>
</svg>
