<svg id="Layer_1" enable-background="new 0 0 512 512" height="512" viewBox="0 0 512 512" width="512" xmlns="http://www.w3.org/2000/svg"><path d="m479.015 272.985c-1.5-1.5-3.535-2.343-5.657-2.343h-434.716c-2.122 0-4.157.843-5.657 2.343-1.5 1.501-2.343 3.535-2.343 5.657 0 60.195 23.442 116.787 66.006 159.352s99.157 66.006 159.353 66.006c60.195 0 116.787-23.441 159.352-66.006s66.005-99.156 66.006-159.352c-.001-2.122-.844-4.156-2.344-5.657zm-215.016 124.596c25.711.566 51.262 3.859 75.169 9.885-18.689 30.471-44.126 56.908-75.169 77.261zm-16 87.146c-31.044-20.352-56.48-46.79-75.17-77.26 23.907-6.025 49.459-9.319 75.17-9.885zm0-102.833c-28.536.595-56.9 4.365-83.264 11.326-16.969-32.363-26.7-68.617-27.959-106.578h111.224v95.252zm-91.031 30.054c16.576 28.092 38.406 52.93 64.155 73.134-41.668-7.017-79.191-26.385-108.672-54.197 13.564-7.615 28.566-13.926 44.517-18.937zm198.063 0c15.951 5.011 30.954 11.322 44.518 18.938-29.482 27.813-67.005 47.181-108.674 54.197 25.749-20.204 47.58-45.043 64.156-73.135zm-91.032-30.054v-95.252h111.223c-1.259 37.961-10.99 74.214-27.959 106.578-26.364-6.961-54.728-10.731-83.264-11.326zm-143.226-95.252c1.236 38.768 10.979 76.831 28.419 111.128-17.405 5.621-33.696 12.734-48.312 21.323-32.016-35.326-52.168-81.593-54.088-132.45h73.981zm290.347 132.451c-14.616-8.589-30.908-15.702-48.313-21.323 17.44-34.297 27.183-72.36 28.419-111.127h73.982c-1.92 50.856-22.073 97.123-54.088 132.45zm-379.552-206.172c7.213-80.194 57.329-150.479 129.64-184.063l-12.224-2.114c-4.354-.753-7.272-4.893-6.52-9.246s4.89-7.273 9.246-6.52l40.649 7.03c2.625.454 4.851 2.184 5.939 4.615s.895 5.244-.516 7.503l-19.761 31.664c-1.517 2.431-4.125 3.766-6.794 3.766-1.446 0-2.91-.392-4.228-1.214-3.749-2.34-4.891-7.274-2.551-11.022l7.275-11.658c-69.209 30.476-117.394 96.808-124.22 172.692-.374 4.156-3.864 7.283-7.958 7.283-.24 0-.482-.011-.726-.032-4.401-.395-7.647-4.283-7.251-8.684zm216.432-196.921c0-4.418 3.582-8 8-8 47.274 0 92.526 14.479 130.865 41.871 32.099 22.934 57.273 53.332 73.637 88.679l2.112-12.21c.753-4.354 4.893-7.278 9.246-6.52 4.354.753 7.272 4.893 6.52 9.246l-7.03 40.649c-.454 2.624-2.184 4.851-4.615 5.938-1.043.467-2.157.698-3.268.698-1.477 0-2.946-.408-4.236-1.213l-31.665-19.762c-3.748-2.34-4.89-7.274-2.551-11.022 2.339-3.747 7.273-4.892 11.022-2.552l11.651 7.272c-33.175-75.359-108.489-125.074-191.688-125.074-4.418 0-8-3.582-8-8zm-38.965 120.651c-4.418 0-8 3.582-8 8v108.205c0 4.418 3.582 8 8 8h30.01c4.418 0 8-3.582 8-8v-108.205c0-4.418-3.582-8-8-8zm22.01 108.205h-14.01v-92.205h14.01zm41.909-87.738c-4.418 0-8 3.582-8 8v87.738c0 4.418 3.582 8 8 8h30.011c4.418 0 8-3.582 8-8v-87.738c0-4.418-3.582-8-8-8zm22.011 87.738h-14.011v-71.738h14.011zm41.909-147.571c-4.418 0-8 3.582-8 8v147.571c0 4.418 3.582 8 8 8h30.01c4.418 0 8-3.582 8-8v-147.571c0-4.418-3.582-8-8-8zm22.011 147.571h-14.01v-131.571h14.01zm-213.769-57.573c-4.418 0-8 3.582-8 8v57.573c0 4.418 3.582 8 8 8h30.01c4.418 0 8-3.582 8-8v-57.573c0-4.418-3.582-8-8-8zm22.01 57.573h-14.01v-41.573h14.01zm-11.843-119.015 63.919-48.534c2.295-1.744 5.351-2.117 7.998-.979l59.188 25.451 38.784-35.284-3.086.011c-.01 0-.02 0-.03 0-4.405 0-7.983-3.562-8-7.971-.016-4.418 3.552-8.013 7.971-8.029l23.881-.088h.029c2.388 0 4.652 1.066 6.172 2.91 1.526 1.851 2.142 4.288 1.676 6.642l-4.631 23.43c-.753 3.811-4.097 6.449-7.839 6.45-.515 0-1.037-.051-1.561-.154-4.221-.834-6.996-4.849-6.345-9.062l-40.065 36.449c-2.321 2.109-5.661 2.671-8.543 1.432l-59.637-25.645-60.205 45.714c-1.446 1.099-3.146 1.629-4.832 1.629-2.416 0-4.804-1.09-6.377-3.162-2.673-3.519-1.986-8.538 1.533-11.21z"/></svg>