<svg id="Layer_5" enable-background="new 0 0 64 64" height="512" viewBox="0 0 64 64" width="512" xmlns="http://www.w3.org/2000/svg"><g><circle cx="14" cy="16" r="1"/><circle cx="20" cy="16" r="1"/><path d="m20.789 20.658.105-.211-1.789-.895-.105.212c-.381.762-1.147 1.236-2 1.236s-1.619-.474-2-1.236l-.105-.211-1.789.895.105.21c.722 1.445 2.174 2.342 3.789 2.342s3.067-.897 3.789-2.342z"/><circle cx="44" cy="16" r="1"/><circle cx="50" cy="16" r="1"/><path d="m45 19.764-.105-.211-1.789.895.105.21c.722 1.445 2.174 2.342 3.789 2.342s3.067-.897 3.789-2.342l.105-.211-1.789-.895-.105.212c-.381.762-1.147 1.236-2 1.236s-1.619-.474-2-1.236z"/><path d="m63 42.179c0-6.806-4.751-12.65-11.363-14.072l-.812-1.393c2.419-.774 4.175-3.042 4.175-5.714 2.206 0 4-1.794 4-4 0-.925-.329-1.767-.858-2.446l.1-.401c.503-2.009.758-4.08.758-6.153 0-2.617-2.02-4.77-4.583-4.983-1.44-1.304-3.288-2.017-5.245-2.017h-5.158c-4.97 0-9.014 4.043-9.014 9.014 0 .737.091 1.473.27 2.186l.585 2.338c-.118.151-.223.312-.319.48-.103-.004-.204-.018-.307-.018-1.704 0-3.308.664-4.514 1.87l-.129.13h-1.586c0-.925-.329-1.768-.858-2.446l.588-2.354c.179-.713.27-1.449.27-2.186 0-4.971-4.044-9.014-9.014-9.014h-5.158c-1.957 0-3.805.713-5.245 2.017-2.563.213-4.583 2.366-4.583 4.983v2.508c0 .408.05.816.149 1.212l.709 2.834c-.529.678-.858 1.521-.858 2.446 0 2.206 1.794 4 4 4 0 2.672 1.756 4.94 4.174 5.714l-.812 1.393c-6.611 1.422-11.362 7.267-11.362 14.072v8.821h13.367c-.871 2.004-1.367 4.2-1.367 6.496 0 3.035 2.47 5.504 5.505 5.504.167 0 .331-.017.495-.031v.031h26v-.031c.164.014.328.031.495.031 3.035 0 5.505-2.469 5.505-5.504 0-2.297-.496-4.492-1.367-6.496h13.367zm-23-13.179c1.103 0 2 .897 2 2s-.897 2-2 2zm3.332-.206.436-1.743c.014-.057.019-.116.032-.173.392.08.793.122 1.2.122h3.677l1.323 2.27v1.73c0 1.654-1.346 3-3 3s-3-1.346-3-3c0-.815-.248-1.573-.668-2.206zm9.668-7.794c0 2.206-1.794 4-4 4h-4c-.351 0-.691-.06-1.024-.149-.061-1.512-.538-2.959-1.422-4.196l-1.554-2.175v-5.494c2.123-.099 4.176-.716 6-1.804 1.824 1.088 3.877 1.705 6 1.804zm-14-6v1.247c-.405-.297-.842-.544-1.305-.739.356-.311.806-.508 1.305-.508zm16 4v-4c1.103 0 2 .897 2 2s-.897 2-2 2zm-10.986-16h5.158c1.557 0 3.021.606 4.121 1.707l.293.293h.414c1.654 0 3 1.346 3 3 0 1.772-.211 3.539-.609 5.264-.435-.163-.9-.264-1.391-.264v-2h-1.395c-2.161 0-4.253-.633-6.051-1.832l-.554-.37-.555.37c-1.798 1.199-3.889 1.832-6.05 1.832h-1.395v2c-.492 0-.963.097-1.404.262l-.387-1.548c-.139-.554-.209-1.127-.209-1.7 0-3.868 3.146-7.014 7.014-7.014zm-12.6 16 .716-.716c.828-.828 1.929-1.284 3.1-1.284 1.413 0 2.746.686 3.567 1.835l2.13 2.982c.702.984 1.073 2.142 1.073 3.35 0 .473-.058.942-.172 1.398l-.197.79c-.5-.224-1.049-.355-1.631-.355v-2h-1.758c-2.469 0-4.789-.961-6.535-2.707l-.51-.51-4.986 2.493c-1.102.552-1.858 1.555-2.111 2.724h-.1c-.582 0-1.131.131-1.63.355l-.198-.792c-.114-.453-.172-.923-.172-1.396v-.167c0-3.309 2.691-6 6-6zm1.586 36.056v-2.112c1.295-.13 2.498-.511 3.49-1.102.317.656.51 1.382.51 2.158s-.193 1.502-.51 2.158c-.992-.591-2.195-.972-3.49-1.102zm-5.49 1.102c-.317-.656-.51-1.382-.51-2.158s.193-1.502.51-2.158c.992.591 2.195.972 3.49 1.102v2.112c-1.295.13-2.498.511-3.49 1.102zm5.49-5.235v-1.822c.858.175 1.623.586 2.26 1.139-.65.346-1.428.576-2.26.683zm-2 0c-.832-.107-1.61-.337-2.26-.683.638-.554 1.402-.964 2.26-1.139zm0 6.154v1.822c-.858-.175-1.623-.586-2.26-1.139.65-.346 1.428-.576 2.26-.683zm2 0c.832.107 1.61.337 2.26.683-.638.554-1.402.964-2.26 1.139zm4-9.077v1.111c-1.272-1.301-3.042-2.111-5-2.111s-3.728.81-5 2.111v-1.111h-1.899c.581-1.105.899-2.346.899-3.605v-.895c.494-.121.996-.224 1.51-.292l.95-.126c.777 1.191 2.09 1.918 3.54 1.918s2.763-.727 3.54-1.919l.95.126c.514.069 1.016.171 1.51.292v.895c0 1.26.318 2.5.899 3.605h-1.899zm-23-18.73 1.323-2.27h3.353l1.324 2.27v1.73c0 1.654-1.346 3-3 3s-3-1.346-3-3zm10-.27v4c-1.103 0-2-.897-2-2s.897-2 2-2zm6.387 12h3.226l.298.894c-.402.679-1.112 1.106-1.911 1.106s-1.509-.427-1.911-1.106zm3.613-2h-4c-2.206 0-4-1.794-4-4v-7.146c0-.762.424-1.448 1.105-1.789l3.719-1.859c1.992 1.754 4.507 2.735 7.176 2.792v8.002c0 2.206-1.794 4-4 4zm-7 1.188c.423.245.877.441 1.357.578l-.108.325-1.003.134c-.083.011-.163.032-.246.045zm9.754 1.037-1.003-.134-.108-.325c.48-.137.935-.332 1.357-.578v1.081c-.083-.012-.163-.033-.246-.044zm-11.754-26.225c1.103 0 2 .897 2 2 0 .024-.005.047-.006.07-.696.088-1.365.263-1.994.519zm-18 2c0-1.103.897-2 2-2v4c-1.103 0-2-.897-2-2zm2.009-4h-.009c-.495 0-.964.102-1.403.267l-.507-2.032c-.06-.237-.09-.482-.09-.727v-2.508c0-1.654 1.346-3 3-3h.414l.293-.293c1.101-1.101 2.564-1.707 4.121-1.707h5.158c3.868 0 7.014 3.146 7.014 7.014 0 .574-.07 1.146-.209 1.701l-.388 1.553c-.438-.166-.908-.268-1.403-.268v-2h-7c-2.867 0-5.415-1.717-6.491-4.375l-1.854.75c.288.711.675 1.356 1.113 1.953-1.079.914-1.719 2.243-1.759 3.672zm1.991 8v-7.859c0-.916.429-1.757 1.136-2.323 1.596 1.374 3.651 2.182 5.864 2.182h5v5.765c-1.791 1.439-2.949 3.631-2.993 6.092-.327.085-.661.143-1.007.143h-4c-2.206 0-4-1.794-4-4zm-8 21.179c0-4.454 2.366-8.426 6-10.615v1.831c0 2.16-.634 4.253-1.832 6.051l-.168.251v9.303h-4zm6 6.821v-8.704c1.31-2.068 2-4.448 2-6.901v-2.805c.326-.123.66-.232 1-.329v.739c0 2.757 2.243 5 5 5 1.723 0 3.245-.876 4.145-2.206.726.742 1.736 1.206 2.855 1.206 0 1.223.369 2.36 1 3.31v3.395c-4.073 1.142-7.483 3.795-9.612 7.295zm6 8.496c0-5.954 3.688-11.178 9-13.345v.244c0 1.333-.477 2.639-1.322 3.662-2.07.276-3.678 2.035-3.678 4.179 0 .654.154 1.31.447 1.895l.211.422-3.105 1.553.895 1.789 4.895-2.447-1.105-2.211c-.154-.309-.236-.655-.236-1-.002-1.234 1.001-2.237 2.234-2.237h1.764v3.713l-3.524 5.64c-.645 1.031-1.755 1.647-2.971 1.647-1.933 0-3.505-1.572-3.505-3.504zm7.748 3.504c.152-.185.293-.38.423-.587l2.353-3.765c1.047 2.55 3.554 4.352 6.476 4.352s5.429-1.802 6.476-4.352l2.353 3.765c.129.207.271.402.423.587h-9.252zm22.747 0c-1.216 0-2.326-.616-2.971-1.647l-3.524-5.64v-3.713h1.764c1.233 0 2.236 1.003 2.236 2.236 0 .345-.082.691-.236 1l-1.105 2.211 4.895 2.447.895-1.789-3.105-1.553.211-.422c.291-.584.445-1.239.445-1.894 0-2.145-1.608-3.903-3.678-4.18-.845-1.022-1.322-2.328-1.322-3.661v-.244c5.312 2.167 9 7.392 9 13.345 0 1.932-1.572 3.504-3.505 3.504zm-6.495-19.296v-3.394c.631-.95 1-2.087 1-3.31 1.119 0 2.129-.464 2.855-1.206.9 1.33 2.422 2.206 4.145 2.206 2.757 0 5-2.243 5-5v-.739c.34.096.674.205 1 .329v2.805c0 2.453.69 4.833 2 6.901v8.704h-6.388c-2.129-3.5-5.539-6.153-9.612-7.296zm22 7.296h-4v-9.303l-.168-.252c-1.198-1.798-1.832-3.89-1.832-6.05v-1.831c3.634 2.189 6 6.161 6 10.615z"/><circle cx="29" cy="30" r="1"/><circle cx="35" cy="30" r="1"/><path d="m34 33.764c-.381.762-1.147 1.236-2 1.236s-1.619-.474-2-1.236l-.105-.211-1.789.895.105.211c.722 1.444 2.174 2.341 3.789 2.341s3.067-.897 3.789-2.342l.105-.211-1.789-.895z"/></g></svg>