<svg id="Layer_5" enable-background="new 0 0 64 64" height="512" viewBox="0 0 64 64" width="512" xmlns="http://www.w3.org/2000/svg"><g><path d="m30.089 41.894c.402.679 1.112 1.106 1.911 1.106s1.509-.427 1.911-1.106l-.298-.894h-3.226z"/><path d="m37 48h1.899c-.581-1.105-.899-2.346-.899-3.605v-.895c-.494-.121-.996-.224-1.51-.292l-.95-.126c-.777 1.191-2.09 1.918-3.54 1.918s-2.763-.727-3.54-1.919l-.95.126c-.514.069-1.016.171-1.51.292v.895c0 1.26-.318 2.5-.899 3.605h1.899v1.111c1.272-1.3 3.042-2.11 5-2.11s3.728.81 5 2.111z"/><path d="m31 52.944c-1.295-.13-2.498-.511-3.49-1.102-.317.656-.51 1.382-.51 2.158s.193 1.502.51 2.158c.992-.591 2.195-.972 3.49-1.102z"/><path d="m33 50.923c.832-.107 1.61-.337 2.26-.683-.638-.554-1.402-.964-2.26-1.139z"/><path d="m31 57.077c-.832.107-1.61.337-2.26.683.638.554 1.402.964 2.26 1.139z"/><path d="m31 49.101c-.858.175-1.623.586-2.26 1.139.65.346 1.428.576 2.26.683z"/><path d="m38 26.998c-2.669-.056-5.184-1.038-7.176-2.792l-3.719 1.859c-.681.341-1.105 1.027-1.105 1.789v7.146c0 2.206 1.794 4 4 4h4c2.206 0 4-1.794 4-4zm-9 2.002c.552 0 1 .448 1 1s-.448 1-1 1-1-.448-1-1 .448-1 1-1zm6.789 5.658c-.722 1.445-2.174 2.342-3.789 2.342s-3.067-.897-3.789-2.342l-.105-.211 1.789-.895.105.212c.381.762 1.147 1.236 2 1.236s1.619-.474 2-1.236l.105-.211 1.789.895zm-.789-3.658c-.552 0-1-.448-1-1s.448-1 1-1 1 .448 1 1-.448 1-1 1z"/><path d="m33 58.899c.858-.175 1.623-.586 2.26-1.139-.65-.346-1.428-.576-2.26-.683z"/><path d="m53 21v-8.014c-2.123-.099-4.176-.716-6-1.804-1.824 1.088-3.877 1.705-6 1.804v5.494l1.554 2.175c.884 1.237 1.361 2.684 1.422 4.196.333.089.673.149 1.024.149h4c2.206 0 4-1.794 4-4zm-9-6c.552 0 1 .448 1 1s-.448 1-1 1-1-.448-1-1 .448-1 1-1zm6.789 5.658c-.722 1.445-2.174 2.342-3.789 2.342s-3.067-.897-3.789-2.342l-.105-.21 1.789-.895.105.211c.381.762 1.147 1.236 2 1.236s1.619-.474 2-1.236l.105-.211 1.789.895zm-.789-3.658c-.552 0-1-.448-1-1s.448-1 1-1 1 .448 1 1-.448 1-1 1z"/><path d="m55 19c1.103 0 2-.897 2-2s-.897-2-2-2z"/><path d="m45 27c-.407 0-.808-.042-1.2-.122-.013.057-.018.116-.032.173l-.436 1.743c.42.633.668 1.391.668 2.206 0 1.654 1.346 3 3 3s3-1.346 3-3v-1.73l-1.323-2.27z"/><path d="m37.596 13.262c.441-.165.912-.262 1.404-.262v-2h1.395c2.161 0 4.253-.633 6.051-1.832l.554-.37.555.37c1.798 1.199 3.889 1.832 6.05 1.832h1.395v2c.491 0 .956.101 1.391.264.398-1.725.609-3.492.609-5.264 0-1.654-1.346-3-3-3h-.414l-.293-.293c-1.101-1.101-2.564-1.707-4.121-1.707h-5.158c-3.868 0-7.014 3.146-7.014 7.014 0 .574.07 1.146.209 1.701z"/><path d="m40 29v4c1.103 0 2-.897 2-2s-.897-2-2-2z"/><path d="m37 54c0-.776-.193-1.502-.51-2.158-.992.591-2.195.972-3.49 1.102v2.112c1.295.13 2.498.511 3.49 1.102.317-.656.51-1.382.51-2.158z"/><path d="m22 25v.167c0 .473.058.942.172 1.396l.198.792c.499-.224 1.048-.355 1.63-.355h.1c.253-1.169 1.009-2.172 2.111-2.724l4.986-2.493.51.51c1.746 1.746 4.066 2.707 6.535 2.707h1.758v2c.582 0 1.131.131 1.631.356l.197-.79c.114-.456.172-.926.172-1.399 0-1.208-.371-2.367-1.073-3.35l-2.13-2.982c-.821-1.149-2.154-1.835-3.568-1.835-1.171 0-2.271.456-3.1 1.284l-.715.716h-3.414c-3.309 0-6 2.691-6 6z"/><path d="m25 50h-1.764c-1.233 0-2.236 1.003-2.236 2.236 0 .345.082.691.236 1l1.105 2.211-4.895 2.447-.895-1.789 3.105-1.553-.211-.422c-.291-.584-.445-1.239-.445-1.894 0-2.145 1.608-3.903 3.678-4.18.845-1.022 1.322-2.328 1.322-3.661v-.244c-5.312 2.167-9 7.392-9 13.345 0 1.932 1.572 3.504 3.505 3.504 1.216 0 2.326-.616 2.971-1.647l3.524-5.64z"/><path d="m25 41.704v-3.394c-.631-.95-1-2.087-1-3.31-1.119 0-2.129-.464-2.855-1.206-.9 1.33-2.422 2.206-4.145 2.206-2.757 0-5-2.243-5-5v-.738c-.34.097-.674.205-1 .329v2.804c0 2.453-.69 4.833-2 6.901v8.704h6.388c2.129-3.5 5.539-6.153 9.612-7.296z"/><path d="m25.524 56.648-2.353 3.765c-.129.207-.271.402-.423.587h9.252c-2.922 0-5.429-1.802-6.476-4.352z"/><path d="m7.597 13.267c.439-.165.908-.267 1.403-.267h.009c.04-1.429.68-2.758 1.76-3.672-.439-.597-.826-1.242-1.114-1.953l1.854-.75c1.076 2.658 3.624 4.375 6.491 4.375h7v2c.495 0 .965.102 1.403.267l.388-1.553c.139-.554.209-1.127.209-1.7 0-3.868-3.146-7.014-7.014-7.014h-5.158c-1.557 0-3.021.606-4.121 1.707l-.293.293h-.414c-1.654 0-3 1.346-3 3v2.508c0 .245.03.49.09.728z"/><path d="m9 19v-4c-1.103 0-2 .897-2 2s.897 2 2 2z"/><path d="m55 31.563v1.831c0 2.16.634 4.253 1.832 6.051l.168.252v9.303h4v-6.821c0-4.455-2.366-8.427-6-10.616z"/><path d="m38.476 56.648c-1.047 2.55-3.554 4.352-6.476 4.352h9.252c-.152-.185-.293-.38-.423-.587z"/><path d="m53 30.59c-.326-.123-.66-.232-1-.329v.739c0 2.757-2.243 5-5 5-1.723 0-3.245-.876-4.145-2.206-.726.742-1.736 1.206-2.855 1.206 0 1.223-.369 2.36-1 3.31v3.395c4.073 1.142 7.483 3.796 9.612 7.296h6.388v-8.704c-1.31-2.068-2-4.448-2-6.901z"/><path d="m25 15v2.589c.629-.256 1.298-.431 1.994-.519.001-.023.006-.046.006-.07 0-1.103-.897-2-2-2z"/><path d="m40 44.151v.244c0 1.333.477 2.639 1.322 3.662 2.07.277 3.678 2.035 3.678 4.18 0 .654-.154 1.31-.447 1.895l-.211.422 3.105 1.553-.895 1.789-4.895-2.447 1.105-2.211c.154-.309.236-.655.236-1 .002-1.235-1.001-2.238-2.234-2.238h-1.764v3.713l3.524 5.64c.645 1.031 1.755 1.647 2.971 1.647 1.933 0 3.505-1.572 3.505-3.504 0-5.954-3.688-11.178-9-13.345z"/><path d="m9 31.564c-3.634 2.189-6 6.161-6 10.615v6.821h4v-9.303l.168-.252c1.198-1.798 1.832-3.89 1.832-6.05z"/><path d="m23 18.765v-5.765h-5c-2.213 0-4.268-.808-5.864-2.183-.707.567-1.136 1.407-1.136 2.324v7.859c0 2.206 1.794 4 4 4h4c.346 0 .68-.058 1.007-.143.044-2.461 1.202-4.653 2.993-6.092zm-3-3.765c.552 0 1 .448 1 1s-.448 1-1 1-1-.448-1-1 .448-1 1-1zm-6 0c.552 0 1 .448 1 1s-.448 1-1 1-1-.448-1-1 .448-1 1-1zm3 8c-1.615 0-3.067-.897-3.789-2.342l-.105-.21 1.789-.895.105.211c.381.762 1.147 1.236 2 1.236s1.619-.474 2-1.236l.105-.211 1.789.895-.105.211c-.722 1.444-2.174 2.341-3.789 2.341z"/><path d="m15.323 27-1.323 2.27v1.73c0 1.654 1.346 3 3 3s3-1.346 3-3v-1.73l-1.323-2.27z"/><path d="m24 33v-4c-1.103 0-2 .897-2 2s.897 2 2 2z"/></g></svg>