<?xml version="1.0" encoding="UTF-8"?>
<svg xmlns="http://www.w3.org/2000/svg" viewBox="0 0 60 60" width="512" height="512"><g id="Icons"><path d="M16.925,14.882a20.1,20.1,0,0,0-5.455,7.592,1,1,0,0,0,1.853.754,18.079,18.079,0,0,1,4.91-6.833,1,1,0,0,0-1.308-1.513Z"/><path d="M4,34H5V58a2,2,0,0,0,2,2H9a2,2,0,0,0,2-2V44.64a23.746,23.746,0,0,0,8,6.671V58a2,2,0,0,0,2,2h2a2,2,0,0,0,2-2V53.464a23.594,23.594,0,0,0,10,0V58a2,2,0,0,0,2,2h2a2,2,0,0,0,2-2V51.311a23.746,23.746,0,0,0,8-6.671V58a2,2,0,0,0,2,2h2a2,2,0,0,0,2-2V34h1a2,2,0,0,0,2-2V28a2,2,0,0,0-2-2H53.637A24.029,24.029,0,0,0,37,7.065V3a3,3,0,0,0-3-3H26a3,3,0,0,0-3,3V7.065A24.029,24.029,0,0,0,6.363,26H4a2,2,0,0,0-2,2v4A2,2,0,0,0,4,34ZM7,58V34H9V58Zm8-22.28L12.85,34h4.3Zm4-.64v3.84L16.6,37ZM13.4,37,11,38.92V35.08Zm-2.222,4.338L15,38.28l4,3.2v7.569A21.754,21.754,0,0,1,11.178,41.338ZM21,58V34h2V58Zm9-22.2L27.3,34H32.7Zm5-.93v4.264L31.8,37ZM28.2,37,25,39.132V34.868ZM25,51.409V41.535L30,38.2l5,3.333v9.874A22.017,22.017,0,0,1,25,51.409ZM37,58V34h2V58ZM49,38.92,46.6,37,49,35.08Zm-4-3.2L42.85,34h4.3ZM43.4,37,41,38.92V35.08ZM41,49.049V41.48l4-3.2,3.822,3.058A21.754,21.754,0,0,1,41,49.049ZM53,58H51V34h2ZM25,3a1,1,0,0,1,1-1h8a1,1,0,0,1,1,1V6.548a23.1,23.1,0,0,0-10,0Zm5,5A22.025,22.025,0,0,1,51.607,26H8.393A22.025,22.025,0,0,1,30,8ZM4,28H56v4H4Z"/><path d="M28,12a1,1,0,0,0-1,1v3H24V13a1,1,0,0,0-2,0v8a1,1,0,0,0,2,0V18h3v3a1,1,0,0,0,2,0V13A1,1,0,0,0,28,12Z"/><path d="M34,15c-2.97,0-3.919,4-2,4a1,1,0,0,0,1-1,1,1,0,0,1,1-1,1.116,1.116,0,0,1,.586,2l-3.293,3.293A1,1,0,0,0,32,24h4a1,1,0,0,0,0-2H34.414L36,20.414A3.109,3.109,0,0,0,34,15Z"/></g></svg>
