<svg id="Icons" height="512" viewBox="0 0 60 60" width="512" xmlns="http://www.w3.org/2000/svg"><path d="m19 41.48-4-3.2-3.822 3.058a21.754 21.754 0 0 0 7.822 7.711z"/><path d="m15 35.72 2.15-1.72h-4.3z"/><path d="m19 35.08-2.4 1.92 2.4 1.92z"/><path d="m25 51.409a22.017 22.017 0 0 0 10 0v-9.874l-5-3.335-5 3.333z"/><path d="m22 58a1 1 0 0 0 1-1v-23h-2v23a1 1 0 0 0 1 1z"/><path d="m30 8a22.025 22.025 0 0 0 -21.607 18h43.214a22.025 22.025 0 0 0 -21.607-18zm-11.767 8.4a18.079 18.079 0 0 0 -4.91 6.833 1 1 0 0 1 -1.853-.754 20.1 20.1 0 0 1 5.455-7.592 1 1 0 0 1 1.308 1.513zm10.767 4.6a1 1 0 0 1 -2 0v-3h-3v3a1 1 0 0 1 -2 0v-8a1 1 0 0 1 2 0v3h3v-3a1 1 0 0 1 2 0zm7 3h-4a1 1 0 0 1 -.707-1.707l3.293-3.293a1.115 1.115 0 0 0 -.586-2 1 1 0 0 0 -1 1 1 1 0 0 1 -1 1c-1.909 0-.975-4 2-4a3.108 3.108 0 0 1 2 5.414l-1.586 1.586h1.586a1 1 0 0 1 0 2z"/><path d="m11 38.92 2.4-1.92-2.4-1.92z"/><path d="m35 6.548v-3.548a1 1 0 0 0 -1-1h-8a1 1 0 0 0 -1 1v3.548a23.1 23.1 0 0 1 10 0z"/><path d="m8 58a1 1 0 0 0 1-1v-23h-2v23a1 1 0 0 0 1 1z"/><path d="m49 38.92v-3.84l-2.4 1.92z"/><path d="m25 39.132 3.197-2.132-3.197-2.132z"/><path d="m47.15 34h-4.3l2.15 1.72z"/><path d="m41 38.92 2.4-1.92-2.4-1.92z"/><rect height="4" rx="1" width="52" x="4" y="28"/><path d="m51 57a1 1 0 0 0 1 1 1 1 0 0 0 1-1v-23h-2z"/><path d="m35 39.132v-4.264l-3.197 2.132z"/><path d="m30 35.798 2.697-1.798h-5.394z"/><path d="m48.822 41.338-3.822-3.058-4 3.2v7.569a21.754 21.754 0 0 0 7.822-7.711z"/><path d="m38 58a1 1 0 0 0 1-1v-23h-2v23a1 1 0 0 0 1 1z"/></svg>