<svg clip-rule="evenodd" fill-rule="evenodd" stroke-linejoin="round" stroke-miterlimit="2" viewBox="0 0 510 510" xmlns="http://www.w3.org/2000/svg"><path d="m415.966 49.71c8.713 2.07 17.022 5.513 24.66 10.219l16.027-7.127 18.878 18.878-7.1 16.027c4.706 7.638 8.148 15.947 10.219 24.687l16.35 6.292v26.703l-16.35 6.293c-2.071 8.713-5.54 17.022-10.219 24.659l7.1 16.028-18.878 18.877-16.027-7.099c-7.611 4.706-15.947 8.148-24.66 10.219l-6.292 16.35h-26.704l-6.292-16.35c-8.74-2.071-17.049-5.54-24.686-10.219l-16.028 7.099-18.877-18.877 7.126-16.028c-4.706-7.61-8.148-15.946-10.246-24.659l-16.35-6.293v-26.703l16.35-6.292c2.098-8.74 5.54-17.049 10.246-24.687l-7.126-16.027 18.877-18.878 16.028 7.127c7.637-4.706 15.946-8.149 24.659-10.219l6.319-16.377h26.704zm-19.657 35.739c-25.735 0-46.576 20.84-46.576 46.575s20.841 46.603 46.576 46.603 46.602-20.868 46.602-46.603-20.867-46.575-46.602-46.575zm-239.72 119.438 13.739 283.173h-56.141l13.703-283.186c4.433 1.814 9.283 2.814 14.366 2.814 5.07 0 9.909-.995 14.333-2.801zm-33.681-2.493-4.898 8.483-103.01 31.477 78.765-73.471h10.499c-.005.267-.008.536-.008.805 0 13.909 7.489 26.083 18.652 32.706zm.697-65.816-5.595-9.69 24.246-104.948 24.245 104.948-5.594 9.69c-5.511-3.113-11.875-4.89-18.651-4.89s-13.14 1.777-18.651 4.89zm56.642 32.305h10.5l78.764 73.471-103.01-31.477-4.898-8.483c11.163-6.623 18.653-18.797 18.653-32.706 0-.269-.003-.538-.009-.805zm-37.991-21.195c12.142 0 22 9.858 22 22s-9.858 22-22 22-22-9.858-22-22 9.858-22 22-22zm352.744 340.372h-286.931v-119.142l143.466-104.234 143.465 104.234zm-121.298-41.261c.784 4.261 1.346 8.615 1.674 13.048.007.097.013.194.018.29 35.569-8.699 62.729-42.71 65.805-84.404-4.487-.831-9.092-1.271-13.789-1.271-27.044 0-51.103 14.356-66.477 36.657 3.275 5.871 6.067 12.112 8.314 18.658l17.887-14.617c3.419-2.793 8.463-2.286 11.257 1.133s2.286 8.463-1.132 11.257zm-15.333-57.798c6.475-6.812 13.77-12.67 21.694-17.38-1.73-17.942-9.08-34.866-22.212-47.998-3.321-3.321-6.889-6.266-10.649-8.851-14.518 16.831-22.687 36.94-24.299 56.788 6.886 4.081 13.297 9.029 19.111 14.715l-.382-3.792c-.442-4.393 2.766-8.319 7.159-8.761s8.319 2.766 8.761 7.159zm-.446 60.47c-7.983-42.838-41.778-75.009-82.264-75.009-4.696 0-9.302.44-13.789 1.271 3.577 48.476 39.709 86.565 83.76 86.565.886 0 1.768-.016 2.647-.047l-42.466-34.701c-3.419-2.794-3.927-7.838-1.133-11.257s7.838-3.926 11.257-1.133z"/></svg>