<svg clip-rule="evenodd" fill-rule="evenodd" stroke-linejoin="round" stroke-miterlimit="2" viewBox="0 0 510 510" xmlns="http://www.w3.org/2000/svg"><path d="m119.203 218.878-101.865 31.127c-3.562 1.088-7.404-.426-9.266-3.651-1.862-3.226-1.252-7.31 1.471-9.85l78.765-73.471c1.481-1.382 3.431-2.15 5.457-2.15h16.179c1.465-6.244 4.695-11.811 9.135-16.144l-7.997-13.851c-1.013-1.754-1.322-3.827-.866-5.8l24.245-104.948c.839-3.629 4.07-6.2 7.795-6.2 3.724 0 6.956 2.571 7.795 6.2l24.245 104.948c.456 1.973.146 4.046-.866 5.8l-7.997 13.851c4.439 4.333 7.67 9.9 9.135 16.144h16.179c2.025 0 3.976.768 5.457 2.15l78.764 73.471c2.724 2.54 3.334 6.624 1.472 9.85-1.862 3.225-5.704 4.739-9.266 3.651l-101.897-31.137 13.041 268.804c.106 2.186-.688 4.321-2.198 5.906s-3.603 2.482-5.792 2.482h-56.14c-2.189 0-4.282-.897-5.792-2.482s-2.305-3.719-2.199-5.905zm-9.062-41.995c-5.831 0-13.224 0-13.224 0l-51.138 47.701 66.879-20.437 6.716-11.632c-4.399-4.191-7.651-9.576-9.233-15.632zm22.738-40.242c2.974-.875 6.121-1.345 9.377-1.345s6.403.47 9.377 1.345c2.843-4.924 6.364-11.023 6.364-11.023l-15.741-68.137-15.741 68.137zm41.492 40.242c-1.582 6.056-4.834 11.441-9.233 15.632 2.963 5.133 6.716 11.632 6.716 11.632l66.879 20.437-51.138-47.701zm-25.974 24.222c-1.991.373-4.043.568-6.141.568-2.109 0-4.173-.198-6.174-.574l-13.498 278.961h39.346zm-6.141-49.809c-9.487 0-17.189 7.702-17.189 17.188 0 9.487 7.702 17.189 17.189 17.189 9.486 0 17.188-7.702 17.188-17.189 0-9.486-7.702-17.188-17.188-17.188zm279.708-108.281c6.664 1.915 13.084 4.575 19.156 7.938l12.283-5.461c3.025-1.345 6.566-.687 8.907 1.654l18.878 18.877c2.338 2.338 2.996 5.874 1.657 8.897 0 0-5.442 12.286-5.442 12.286 3.367 6.079 6.03 12.508 7.946 19.194l12.525 4.82c3.088 1.189 5.126 4.157 5.126 7.466v26.703c0 3.31-2.038 6.278-5.126 7.467 0 0-12.53 4.822-12.53 4.821-1.919 6.664-4.591 13.085-7.945 19.157l5.446 12.295c1.339 3.023.681 6.558-1.657 8.897l-18.878 18.877c-2.338 2.338-5.874 2.997-8.897 1.658 0 0-12.282-5.44-12.281-5.44-6.065 3.364-12.5 6.025-19.171 7.941l-4.821 12.527c-1.189 3.089-4.157 5.127-7.466 5.127h-26.703c-3.31 0-6.278-2.038-7.467-5.127 0 0-4.82-12.526-4.82-12.526-6.683-1.919-13.109-4.593-19.185-7.948l-12.295 5.446c-3.023 1.339-6.558.68-8.896-1.658l-18.878-18.877c-2.341-2.341-2.998-5.882-1.653-8.908 0 0 5.459-12.277 5.459-12.277-3.362-6.061-6.025-12.493-7.953-19.16l-12.539-4.825c-3.089-1.189-5.127-4.157-5.127-7.467v-26.703c0-3.309 2.038-6.277 5.127-7.466 0 0 12.536-4.825 12.536-4.824 1.929-6.682 4.593-13.108 7.958-19.183l-5.461-12.283c-1.345-3.025-.688-6.566 1.653-8.907l18.878-18.877c2.341-2.341 5.882-2.999 8.907-1.654 0 0 12.282 5.461 12.282 5.462 6.074-3.365 12.497-6.026 19.163-7.941l4.847-12.56c1.19-3.085 4.157-5.12 7.464-5.12h26.703c3.311 0 6.28 2.04 7.467 5.131zm-13.465 9.564s-4.322-11.246-4.322-11.246h-15.719l-4.343 11.257c-.949 2.459-3.049 4.294-5.614 4.903-7.884 1.874-15.402 4.988-22.313 9.246-2.247 1.386-5.034 1.572-7.447.5l-11.006-4.894s-11.106 11.106-11.106 11.106l4.894 11.006c1.073 2.413.886 5.199-.499 7.447-4.262 6.916-7.378 14.442-9.278 22.357-.614 2.56-2.448 4.653-4.905 5.599 0 0-11.224 4.319-11.224 4.319v15.717l11.224 4.32c2.455.945 4.288 3.036 4.904 5.594 1.899 7.887 5.012 15.435 9.272 22.324 1.391 2.249 1.58 5.041.506 7.458l-4.894 11.006 11.112 11.112 11.011-4.877c2.404-1.065 5.177-.881 7.419.493 6.915 4.236 14.438 7.38 22.351 9.255 2.57.609 4.674 2.447 5.622 4.911 0 0 4.32 11.224 4.32 11.224h15.717l4.319-11.224c.948-2.462 3.049-4.299 5.617-4.909 7.879-1.873 15.419-4.984 22.301-9.24 2.246-1.389 5.033-1.58 7.448-.51l11.01 4.877 11.118-11.118-4.877-11.011c-1.065-2.403-.881-5.177.493-7.419 4.237-6.916 7.382-14.44 9.257-22.33.61-2.567 2.447-4.668 4.91-5.616 0 0 11.223-4.32 11.223-4.32v-15.717l-11.223-4.319c-2.465-.949-4.303-3.052-4.911-5.622-1.874-7.907-4.988-15.424-9.245-22.334-1.383-2.244-1.572-5.026-.504-7.437l4.877-11.01s-11.112-11.112-11.112-11.112l-11.006 4.894c-2.413 1.072-5.199.886-7.447-.5-6.91-4.258-14.429-7.372-22.312-9.246-2.569-.61-4.671-2.449-5.618-4.914zm-12.19 24.87c30.154 0 54.602 24.421 54.602 54.575 0 30.153-24.449 54.603-54.602 54.603-30.154 0-54.576-24.448-54.576-54.603s24.42-54.575 54.576-54.575zm0 16c-21.315 0-38.576 17.261-38.576 38.575 0 21.316 17.26 38.603 38.576 38.603 21.317 0 38.602-17.285 38.602-38.603 0-21.316-17.286-38.575-38.602-38.575zm98.691 402.611h-286.93c-4.419 0-8-3.582-8-8v-119.142c0-2.561 1.226-4.967 3.297-6.472l143.466-104.234c2.803-2.037 6.6-2.037 9.404 0l143.465 104.234c2.072 1.505 3.298 3.911 3.298 6.472v119.142c0 4.418-3.582 8-8 8zm-8-16v-107.066s-135.465-98.421-135.465-98.421l-135.465 98.421v107.066zm-135.465-9.972c-1.953.139-3.921.21-5.905.21-48.028 0-87.838-41.124-91.738-93.976-.3-4.069 2.51-7.712 6.521-8.455 4.961-.919 10.054-1.405 15.246-1.405 13.91 0 27.131 3.449 38.989 9.634.66-23.106 9.548-46.901 26.496-66.549 2.665-3.09 7.228-3.679 10.59-1.367 4.158 2.858 8.102 6.115 11.774 9.786 15.746 15.746 24 36.428 24.878 58.126 11.863-6.185 25.094-9.63 39.025-9.63 5.192 0 10.284.486 15.245 1.405 4.012.743 6.822 4.386 6.522 8.455-3.9 52.852-43.71 93.976-91.739 93.976-1.983 0-3.951-.071-5.904-.21zm-20.501-83.003c4.43 3.718 8.551 7.873 12.31 12.408l-1.712-17.01c-.442-4.393 2.766-8.319 7.159-8.761s8.319 2.766 8.761 7.159l1.903 18.911c3.868-4.71 8.124-9.012 12.711-12.847 1.813-21.323-4.673-42.366-19.972-57.665-1.18-1.18-2.395-2.307-3.641-3.382-13.693 18.601-19.676 40.641-17.519 61.187zm29.193 41.31c.864 2.229 1.658 4.499 2.381 6.808l24.527-20.043c3.419-2.793 8.463-2.286 11.256 1.133 2.794 3.419 2.287 8.463-1.132 11.257l-30.707 25.092c.049.341.097.682.143 1.025 33.494-4.604 60.032-33.875 65.681-71.022-1.641-.121-3.297-.183-4.965-.183-29.23 0-54.454 18.743-67.184 45.933zm-12.545 12.707c-10.156-33.977-38.407-58.64-72.023-58.64-1.668 0-3.324.062-4.965.183 5.741 37.754 33.06 67.374 67.33 71.228l-32.213-26.323c-3.419-2.794-3.926-7.838-1.133-11.257 2.794-3.419 7.838-3.926 11.257-1.133z"/></svg>