<svg width="40" height="41" viewBox="0 0 40 41" fill="none" xmlns="http://www.w3.org/2000/svg">
<g id="Titan" clip-path="url(#clip0_1149_2232)">
<g id="Group">
<path id="Vector" d="M39.6495 19.7863L22.6445 3.07305C21.1863 1.63969 18.8137 1.63977 17.3556 3.07297L0.350474 19.7863C-0.111167 20.2401 -0.117573 20.982 0.336099 21.4436C0.789771 21.9051 1.53172 21.9116 1.99329 21.458L3.31665 20.1573V33.5008C3.31665 36.3132 5.60477 38.6013 8.41719 38.6013H31.5828C34.3952 38.6013 36.6834 36.3132 36.6834 33.5008V20.1573L38.0067 21.458C38.2349 21.6822 38.5316 21.7941 38.8281 21.7941C39.1313 21.7941 39.4345 21.677 39.6639 21.4437C40.1176 20.982 40.1112 20.2401 39.6495 19.7863ZM34.3395 33.5008C34.3395 35.0209 33.1028 36.2576 31.5827 36.2576H8.41719C6.89711 36.2576 5.6604 35.0209 5.6604 33.5008V17.8538L18.9984 4.74453C19.1365 4.60883 19.2963 4.50703 19.4668 4.43914C19.9358 4.25258 20.4866 4.3225 20.8941 4.64906C20.9312 4.67875 20.967 4.71055 21.0016 4.74453L34.3396 17.8537V33.5008H34.3395Z" fill="#10131F"/>
<path id="Vector_2" d="M16.4784 15.6885V19.4596H12.707C12.0598 19.4596 11.5352 19.9843 11.5352 20.6315V25.3086C11.5352 25.9557 12.0598 26.4804 12.707 26.4804H16.4784V30.2515C16.4784 30.8987 17.0031 31.4234 17.6503 31.4234H22.3273C22.9745 31.4234 23.4992 30.8987 23.4992 30.2515V26.4804H27.27C27.9172 26.4804 28.4419 25.9557 28.4419 25.3086V20.6315C28.4419 19.9843 27.9172 19.4596 27.27 19.4596H23.4992V15.6885C23.4992 15.0413 22.9745 14.5166 22.3273 14.5166H17.6503C17.0031 14.5166 16.4784 15.0413 16.4784 15.6885ZM18.8222 20.6315V16.8604H21.1555V20.6315C21.1555 21.2787 21.6802 21.8034 22.3273 21.8034H26.0981V24.1367H22.3273C21.6802 24.1367 21.1555 24.6614 21.1555 25.3086V29.0796H18.8222V25.3086C18.8222 24.6614 18.2975 24.1367 17.6503 24.1367H13.8789V21.8034H17.6503C18.2975 21.8034 18.8222 21.2787 18.8222 20.6315Z" fill="#10131F"/>
</g>
</g>
<defs>
<clipPath id="clip0_1149_2232">
<rect width="40" height="40" fill="white" transform="translate(0 0.299805)"/>
</clipPath>
</defs>
</svg>
